<?xml version="1.0" encoding="UTF-8" standalone="no"?><!DOCTYPE svg PUBLIC "-//W3C//DTD SVG 20010904//EN"
 "http://www.w3.org/Graphics/SVG/1.1/DTD/svg11.dtd">
<svg version="1.1" baseProfile="full" xmlns="http://www.w3.org/2000/svg"
 width="1024pt" height="1024pt" viewBox="0 0 1024 1024" preserveAspectRatio="xMidYMid meet">
<g id="svg" fill="black" stroke="none" stroke-linecap="round" transform="scale(0.1,0.1)">
<path d="M0 6700l134 0 c73 0 160 -3 194 -6 l60 -7 7 -87 c6 -74 10 -89 26 -94 10 -3 30 -6 44 -6 
23 0 25 -3 25 -49 l0 -48 85 -7 c47 -3 114 -3 150 0 l65 7 0 49 0 49 103 -3 
102 -3 -3 52 -4 51 252 -2 c138 -1 253 1 256 6 3 4 25 8 50 8 38 0 44 3 46 23 
1 12 2 54 2 92 l1 70 53 -3 52 -3 0 55 0 56 45 0 45 0 0 50 0 50 50 0 50 0 0 50 
0 50 50 0 50 0 0 50 0 50 99 0 c81 0 100 3 105 16 3 9 6 29 6 44 0 27 3 29 43 32 
l42 3 3 53 3 52 48 0 49 0 6 44 c7 43 8 44 51 50 l45 6 0 43 0 44 54 6 55 5 -6 39 
c-3 21 -7 40 -9 42 -2 2 1 10 7 18 6 7 31 13 54 13 43 0 43 1 50 39 6 39 7 40 53 43 
l46 3 -3 53 -2 52 49 0 50 0 7 50 7 50 43 0 43 0 7 50 7 50 43 0 43 0 7 50 
7 50 44 0 44 0 0 50 0 50 55 0 54 0 3 58 c3 57 3 57 36 60 26 3 36 9 43 31 
9 24 17 29 60 35 27 3 74 6 104 6 54 0 55 1 53 28 -1 15 -2 34 -2 42 l0 14 
137 15 56 58 56 59 c21 -9 36 -14 39 -13 11 4 14 38 15 147 1 78 4 146 7 151 
3 5 25 9 50 9 l44 0 0 45 0 45 40 0 c24 0 42 5 45 13 2 6 7 51 10 98 l7 87 42 6 
43 7 7 78 c3 43 3 86 0 95 -4 11 -19 16 -49 16 l-42 0 -8 100 -7 100 -50 0 
-51 0 7 55 6 55 -55 0 -55 0 0 44 c0 43 0 43 -41 50 -22 4 -44 4 -50 1 -5 -4 -29 -3 -54 1 
l-45 6 0 43 c0 23 -3 69 -6 103 l-7 61 -98 7 -99 7 0 58 0 59 0 0 3375 0 
3375 0 0 -5120 0 -1720 -168 -6 c-119 -5 -171 -4 -176 4 -4 7 -25 9 -56 5 
l-50 -6 0 45 0 45 -46 7 c-26 3 -68 6 -95 6 l-48 0 -7 45 -6 45 -44 0 c-23 0 -46 4 -49 10 
-3 6 -26 10 -49 10 l-44 0 -6 45 -7 44 -510 -4 c-280 -3 -525 -5 -544 -5 
l-35 0 0 -50 0 -50 -50 0 -50 0 0 -50 0 -50 -50 0 -50 0 0 -45 0 -45 -56 0 
-57 0 6 -49 6 -49 -50 -7 -49 -7 0 -50 0 -50 -52 4 -53 3 -3 -52 -3 -53 -45 0 
-44 0 0 -50 0 -50 -49 0 -50 0 -3 -42 c-3 -42 -4 -43 -49 -52 -46 -9 -47 -10 -53 -52 
l-6 -44 -45 0 -45 0 0 -50 0 -50 -50 0 -50 0 0 -55 0 -55 -50 0 -50 0 0 -50 
0 -50 -49 0 -48 0 -5 -45 -6 -45 -45 0 -46 0 -3 -52 -3 -53 -46 -3 c-39 -2 -48 -7 -53 -25 
-3 -12 -6 -32 -6 -44 0 -20 -5 -23 -44 -23 l-45 0 -3 -52 -3 -53 -50 -5 
c-49 -5 -50 -6 -53 -41 -2 -26 -9 -39 -23 -43 -10 -3 -30 -6 -44 -6 -23 0 -25 -4 -25 -45 
l0 -45 -49 0 c-28 0 -53 -5 -56 -10 -4 -6 -26 -8 -55 -4 l-49 6 -3 -48 -3 -49 -46 -3 
-47 -3 6 -105 5 -104 -52 0 -51 0 0 -50 0 -50 -49 0 -48 0 -5 -45 -6 -45 -45 0 
-46 0 -3 -52 -3 -53 -47 2 -48 1 0 -54 0 -54 -44 0 c-41 0 -44 -2 -50 -32 
-4 -18 -9 -105 -12 -194 l-6 -161 50 -6 50 -6 7 -94 7 -94 149 -7 149 -6 0 -45 
0 -44 44 -6 44 -7 7 -93 7 -93 94 -7 94 -7 0 -49 0 -49 49 0 48 0 5 -45 
6 -45 96 0 96 0 0 -50 0 -50 -1670 0 -5120 0 0 5120 0 1580 z" fill="rgb(2, 1, 32)"/>
<path d="M10240 3400l0 -400 -29 0 c-16 0 -43 3 -60 6 -28 6 -31 10 -31 45 l0 39 -54 0 
c-30 0 -58 5 -62 11 -4 7 -25 9 -55 7 -36 -4 -49 -1 -54 9 -3 8 -5 31 -5 50 
l0 36 -65 -6 c-36 -4 -79 -4 -95 0 -28 5 -30 8 -30 54 l0 49 -99 0 -100 0 -3 53 
c-3 47 -5 52 -25 50 -13 -2 -236 -3 -497 -4 l-473 0 -7 -76 c-3 -42 -6 -109 -6 -150 
l0 -73 -44 0 c-31 0 -46 -5 -50 -16 -3 -9 -6 -29 -6 -44 0 -27 -3 -29 -47 -32 
l-48 -3 0 -55 0 -55 -47 -3 -48 -3 0 -50 0 -49 -55 6 -55 7 0 -52 0 -51 -44 0 
-44 0 -7 -50 -7 -50 -44 0 -44 0 0 -50 0 -50 -56 0 -56 0 4 -52 3 -53 -47 -3 
-47 -3 -3 -47 -3 -47 -47 2 -48 1 -6 -48 -6 -47 -94 -7 -94 -6 0 -45 0 -45 -65 0 
c-36 0 -81 -3 -100 -6 -34 -6 -35 -8 -35 -55 l0 -49 -49 0 c-28 0 -52 -4 -55 -8 
-3 -5 -5 -48 -5 -97 1 -5 1 -11 0 -16 l-409 -27 -204 -13 -70 -61 -69 -62 51 -48 
50 -48 273 -9 182 -6 0 -50 0 -50 -52 3 -53 4 0 -51 0 -51 -45 0 c-39 0 -45 -3 -51 -24 
-3 -13 -4 -41 -3 -62 1 -22 2 -53 1 -70 l-2 -31 -81 -7 c-44 -4 -177 -7 -295 -7 
l-214 1 0 -99 0 -98 45 -6 45 -7 0 -50 0 -50 49 0 48 0 7 -52 c3 -29 6 -73 6 -97 
l0 -44 75 6 c41 4 109 4 150 0 l75 -6 -6 -48 -7 -49 57 0 56 0 0 -49 0 -50 45 -6 
c43 -7 44 -8 51 -51 l6 -44 159 0 c88 0 195 -3 239 -6 l80 -7 10 -38 c10 -38 12 -39 54 -39 
23 0 45 -3 49 -6 3 -4 137 -6 297 -6 161 0 294 3 297 5 2 3 7 23 10 45 l5 39 64 7 
c35 3 100 6 144 6 l80 0 0 50 0 50 49 0 50 0 6 44 7 44 101 8 c56 5 188 8 294 7 
l192 -2 3 42 3 42 97 10 c53 6 102 15 109 22 9 9 9 20 0 44 -6 17 -11 37 -11 43 
0 6 11 23 24 36 l24 26 c17 -14 34 -28 51 -42 33 -28 67 -56 101 -84 26 -21 52 -43 78 -64 
21 -18 42 -35 63 -53 l-15 -12 c-9 -8 -16 -34 -18 -64 l-3 -52 -97 -3 -98 -3 0 -47 
0 -47 -105 -2 -105 -2 0 -40 c0 -22 -5 -43 -12 -47 -6 -4 -183 -7 -392 -6 
-293 1 -382 -1 -388 -11 -4 -6 -8 -29 -8 -49 l0 -38 -102 -2 c-57 -2 -137 -3 -178 -3 
-41 0 -83 -1 -92 -2 -14 -2 -18 -13 -18 -48 l0 -45 -56 0 -57 0 6 -50 6 -50 
-1009 0 0 50 0 50 -96 0 -96 0 -6 45 -5 45 -48 0 -49 0 0 49 0 49 -94 7 
-94 7 -7 93 -7 93 -44 7 -44 6 0 44 0 45 -149 6 -149 7 -7 94 -7 94 -50 6 
-50 6 6 161 c3 89 8 176 12 194 6 30 9 32 50 32 l44 0 0 54 0 54 48 -1 47 -2 3 53 
3 52 46 0 45 0 6 45 5 45 48 0 49 0 0 50 0 50 51 0 52 0 -5 104 -6 105 47 3 
46 3 3 49 3 48 49 -6 c29 -4 51 -2 55 4 3 5 28 10 56 10 l49 0 0 45 c0 41 2 45 25 45 
14 0 34 3 44 6 14 4 21 17 23 43 3 35 4 36 53 41 l50 5 3 53 3 52 45 0 c39 0 44 3 44 23 
0 12 3 32 6 44 5 18 14 23 53 25 l46 3 3 53 3 52 46 0 45 0 6 45 5 45 48 0 
49 0 0 50 0 50 50 0 50 0 0 55 0 55 50 0 50 0 0 50 0 50 45 0 45 0 6 44 
c6 42 7 43 53 52 45 9 46 10 49 52 l3 42 50 0 49 0 0 50 0 50 44 0 45 0 3 53 
3 52 53 -3 52 -4 0 50 0 50 49 7 50 7 -6 49 -6 49 57 0 56 0 0 45 0 45 50 0 
50 0 0 50 0 50 50 0 50 0 0 50 0 50 35 0 c19 0 264 2 544 5 l510 4 7 -44 
6 -45 44 0 c23 0 46 -4 49 -10 3 -6 26 -10 49 -10 l44 0 6 -45 7 -45 48 0 
c27 0 69 -3 95 -6 l46 -7 0 -45 0 -45 50 6 c31 4 52 2 56 -5 5 -8 57 -9 176 -4 
l168 6 z" fill="rgb(2, 9, 49)"/>
<path d="M9531 623c244 -203 475 -394 549 -455 l160 -132 0 -36 -2441 0 -6 50 -6 50 57 0 
56 0 0 45 c0 35 4 46 18 48 9 1 51 2 92 2 41 0 121 1 178 3 l102 2 0 38 
c0 20 4 43 8 49 6 10 95 12 388 11 209 -1 386 2 392 6 7 4 12 25 12 47 l0 40 105 2 
105 2 0 47 0 47 98 3 97 3 3 52 c2 30 9 56 18 64 l15 12 z" fill="rgb(5, 6, 40)"/>
<path d="M9468 676l16 13 c10 9 16 29 16 56 0 34 4 44 20 49 11 3 31 6 45 6 23 0 25 3 25 48 
0 26 4 52 9 57 5 6 6 32 1 63 -5 29 -7 107 -5 175 3 67 7 134 11 149 l5 26 
c27 -7 53 -15 78 -22 77 -22 150 -43 214 -62 152 -43 258 -72 277 -76 l60 -12 
0 -1110 -160 132 c-74 61 -305 252 -549 455 -21 18 -42 35 -63 53 z" fill="rgb(98, 88, 187)"/>
<path d="M6895 1595l100 -3 70 -2 c148 -5 308 -10 455 -16 l-10 -4 c-5 0 -10 -19 -10 -41 
l0 -42 -50 6 c-27 3 -72 3 -99 0 l-49 -6 -7 -87 c-6 -74 -10 -89 -26 -94 
-10 -3 -30 -6 -44 -6 -23 0 -25 -4 -25 -44 l0 -45 -52 -3 -53 -3 0 -55 0 -55 -143 -1 
c-78 0 -144 -3 -146 -5 -2 -2 -6 -45 -7 -96 -2 -51 -1 -95 3 -98 3 -3 3 -28 0 -55 
l-5 -50 46 0 c38 0 46 -3 51 -22 3 -13 6 -33 6 -44 0 -20 7 -22 95 -28 l95 -7 0 -50 
0 -49 99 0 c94 0 99 -1 105 -23 3 -12 6 -32 6 -44 0 -21 5 -23 50 -23 28 0 137 -1 243 -2 
105 -2 238 -2 295 0 l102 2 0 100 0 100 230 -5 c127 -3 264 -2 305 1 l75 7 0 48 
0 49 40 0 c22 0 64 1 93 3 l52 2 5 50 5 50 46 3 c39 2 48 7 53 25 3 12 6 32 6 45 
0 20 5 22 46 22 27 0 54 7 68 17 l21 16 c12 -10 24 -20 36 -30 52 -43 109 -89 167 -137 
l-24 -26 c-13 -13 -24 -30 -24 -36 0 -6 5 -26 11 -43 9 -24 9 -35 0 -44 
-7 -7 -56 -16 -109 -22 l-97 -10 -3 -42 -3 -42 -192 2 c-106 1 -238 -2 -294 -7 
l-101 -8 -7 -44 -6 -44 -50 0 -49 0 0 -50 0 -50 -80 0 c-44 0 -109 -3 -144 -6 
l-64 -7 -5 -39 c-3 -22 -8 -42 -10 -45 -3 -2 -136 -5 -297 -5 -160 0 -294 2 -297 6 
-4 3 -26 6 -49 6 -42 0 -44 1 -54 39 l-10 38 -80 7 c-44 3 -151 6 -239 6 
l-159 0 -6 44 c-7 43 -8 44 -51 51 l-45 6 0 50 0 49 -56 0 -57 0 7 49 6 48 -75 6 
c-41 4 -109 4 -150 0 l-75 -6 0 44 c0 24 -3 68 -6 97 l-7 52 -48 0 -49 0 0 50 
0 50 -45 7 -45 6 0 98 0 99 214 -1 c118 0 251 3 295 7 l81 7 2 31 c1 17 0 48 -1 70 
-1 21 0 49 3 62 6 21 12 24 51 24 l45 0 0 51 0 51 53 -4 52 -3 0 50 0 50 
z" fill="rgb(0, 13, 58)"/>
<path d="M7520 1574c59 -2 116 -4 169 -6 122 -5 224 -10 286 -13 87 -5 205 -9 321 -11 
l13 -17 c8 -6 92 -56 187 -109 96 -54 217 -129 269 -168 7 -5 19 -14 34 -26 
48 -38 132 -106 236 -191 l-21 -16 c-14 -10 -41 -17 -68 -17 -41 0 -46 -2 -46 -22 
0 -13 -3 -33 -6 -45 -5 -18 -14 -23 -53 -25 l-46 -3 -5 -50 -5 -50 -52 -2 
c-29 -2 -71 -3 -93 -3 l-40 0 0 -49 0 -48 -75 -7 c-41 -3 -178 -4 -305 -1 
l-230 5 0 -100 0 -100 -102 -2 c-57 -2 -190 -2 -295 0 -106 1 -215 2 -243 2 
-45 0 -50 2 -50 23 0 12 -3 32 -6 44 -6 22 -11 23 -105 23 l-99 0 0 49 0 50 -95 7 
c-88 6 -95 8 -95 28 0 11 -3 31 -6 44 -5 19 -13 22 -51 22 l-46 0 5 50 c3 27 3 52 0 55 
-4 3 -5 47 -3 98 1 51 5 94 7 96 2 2 68 5 146 5 l143 1 0 55 0 55 53 3 52 3 0 45 
c0 40 2 44 25 44 14 0 34 3 44 6 16 5 20 20 26 94 l7 87 49 6 c27 3 72 3 99 0 
l50 -6 0 42 c0 22 5 41 10 41 l10 4 z" fill="rgb(2, 19, 70)"/>
<path d="M9289 824l20 31 c18 27 19 32 5 52 -9 14 -12 33 -8 48 3 14 3 33 -1 42 -3 10 -7 90 -9 178 
-1 88 2 176 7 195 l9 35 165 -48 8 -2 c43 -12 85 -25 126 -37 l-5 -26 c-4 -15 -8 -82 -11 -149 
-2 -68 0 -146 5 -175 5 -31 4 -57 -1 -63 -5 -5 -9 -31 -9 -57 0 -45 -2 -48 -25 -48 
-14 0 -34 -3 -45 -6 -16 -5 -20 -15 -20 -49 0 -27 -6 -47 -16 -56 l-16 -13 
c-26 21 -52 43 -78 64 -34 28 -68 56 -101 84 z" fill="rgb(78, 101, 184)"/>
<path d="M9238 866c-58 48 -115 94 -167 137 l14 37 c8 23 11 72 8 147 -2 64 0 114 6 117 
5 3 7 24 4 46 -4 29 0 47 15 72 l21 34 160 -47 13 -4 -9 -35 c-5 -19 -8 -107 -7 -195 
2 -88 6 -168 9 -178 4 -9 4 -28 1 -42 -4 -15 -1 -34 8 -48 14 -20 13 -25 -5 -52 
l-20 -31 c-17 14 -34 28 -51 42 z" fill="rgb(50, 97, 172)"/>
<path d="M9035 1033c-104 85 -188 153 -236 191 l22 36 c12 19 30 40 40 45 11 6 24 28 30 48 
5 21 7 46 4 56 -3 11 -1 40 6 65 l12 48 78 -23 148 -43 -21 -34 c-15 -25 -19 -43 -15 -72 
3 -22 1 -43 -4 -46 -6 -3 -8 -53 -6 -117 3 -75 0 -124 -8 -147 l-14 -37 
c-12 10 -24 20 -36 30 z" fill="rgb(55, 112, 184)"/>
<path d="M9903 1234l-1 131 c0 72 3 137 8 144 4 8 4 26 -2 42 -8 23 -17 28 -59 34 
l-49 7 1 41 c1 23 1 45 1 48 l-1 6 c239 -56 420 -97 426 -97 l13 0 0 -444 
-60 12 c-19 4 -125 33 -277 76 z" fill="rgb(101, 104, 197)"/>
<path d="M8296 1544c94 -3 186 -4 259 -4 l245 0 50 0 63 -18 -12 -48 c-7 -25 -9 -54 -6 -65 
3 -10 1 -35 -4 -56 -6 -20 -19 -42 -30 -48 -10 -5 -28 -26 -40 -45 l-22 -36 
c-15 12 -27 21 -34 26 -52 39 -173 114 -269 168 -95 53 -179 103 -187 109 
l-13 17 z" fill="rgb(47, 115, 183)"/>
<path d="M9689 1296l10 44 c5 24 7 48 5 52 -3 5 -6 79 -6 164 l0 156 c35 -9 70 -17 103 -25 
l1 -6 c0 -3 0 -25 -1 -48 l-1 -41 49 -7 c42 -6 51 -11 59 -34 6 -16 6 -34 2 -42 
-5 -7 -8 -72 -8 -144 l1 -131 c-64 19 -137 40 -214 62 z" fill="rgb(91, 114, 195)"/>
<path d="M9611 1318c-41 12 -83 25 -126 37 l-8 2 12 31 c10 24 10 39 1 67 -9 26 -9 39 -1 49 
7 8 9 29 5 53 -4 29 -2 42 9 52 12 9 13 19 6 40 -9 25 -17 29 -61 35 l-50 7 4 37 
c1 8 1 28 1 54 72 -17 152 -37 239 -57 19 -4 37 -9 56 -13 l0 -156 c0 -85 3 -159 6 -164 
2 -4 0 -28 -5 -52 l-10 -44 c-25 7 -51 15 -78 22 z" fill="rgb(83, 120, 197)"/>
<path d="M9312 1405l-13 4 7 35 c3 20 3 44 -1 53 -4 10 -7 83 -7 163 l2 148 c32 -8 66 -17 103 -26 
0 -26 0 -46 -1 -54 l-4 -37 50 -7 c44 -6 52 -10 61 -35 7 -21 6 -31 -6 -40 
-11 -10 -13 -23 -9 -52 4 -24 2 -45 -5 -53 -8 -10 -8 -23 1 -49 9 -28 9 -43 -1 -67 
l-12 -31 -165 48 z" fill="rgb(78, 125, 196)"/>
<path d="M9139 1456l-148 43 9 31 c6 22 6 69 -1 134 -6 56 -9 130 -5 166 l6 64 47 -6 
12 -14 c4 -5 96 -30 241 -66 l-2 -148 c0 -80 3 -153 7 -163 4 -9 4 -33 1 -53 
l-7 -35 -160 47 z" fill="rgb(67, 132, 197)"/>
<path d="M8913 1522l-63 18 -50 0 0 40 0 40 -49 0 -50 0 -3 48 -3 47 -50 0 -50 0 -3 53 
-3 52 -50 0 -49 0 0 59 0 59 c150 2 198 -3 352 -23 l158 -21 -6 -64 c-4 -36 -1 -110 5 -166 
7 -65 7 -112 1 -134 l-9 -31 -78 23 z" fill="rgb(68, 140, 198)"/>
<path d="M7689 1568l8 169 8 169 c155 9 295 16 410 22 97 4 175 7 228 8 59 1 107 2 147 2 
l0 -59 0 -59 49 0 50 0 3 -52 3 -53 50 0 50 0 3 -47 3 -48 50 0 49 0 0 -40 
0 -40 -245 0 c-73 0 -165 1 -259 4 -116 2 -234 6 -321 11 -62 3 -164 8 -286 13 
z" fill="rgb(52, 147, 199)"/>
<path d="M7091 1869l173 11 c152 9 302 18 441 26 l-8 -169 -8 -169 c-53 2 -110 4 -169 6 
-147 6 -307 11 -455 16 l-70 2 -3 96 -3 92 40 0 c23 0 46 4 52 9 6 5 10 35 10 80 
z" fill="rgb(68, 140, 198)"/>
<path d="M7091 1869c0 -45 -4 -75 -10 -80 -6 -5 -29 -9 -52 -9 l-40 0 3 -92 3 -96 
-100 3 -182 6 -11 8 c-6 3 -11 26 -12 51 -2 25 1 52 4 61 4 9 3 40 -2 69 
l-10 52 409 27 z" fill="rgb(67, 132, 197)"/>
<path d="M9801 1687c-33 8 -68 16 -103 25 -19 4 -37 9 -56 13 -87 20 -167 40 -239 57 
-1 42 -3 102 -7 163 l-11 178 c192 128 318 220 441 322 99 83 233 199 297 259 
l117 109 0 -1223 -13 0 c-6 0 -187 41 -426 97 z" fill="rgb(55, 68, 156)"/>
<path d="M6682 1842l10 -52 c5 -29 6 -60 2 -69 -3 -9 -6 -36 -4 -61 1 -25 6 -48 12 -51 
l11 -8 -273 9 -50 48 -51 48 69 62 70 61 204 13 z" fill="rgb(78, 125, 196)"/>
<path d="M9403 1782c-37 9 -71 18 -103 26 -145 36 -237 61 -241 66 l-12 14 7 10 c3 5 114 81 255 175 
15 9 29 19 44 29 11 7 21 14 32 21 l11 -178 c4 -61 6 -121 7 -163 z" fill="rgb(47, 73, 155)"/>
<path d="M10240 3000l0 -141 -688 -175 -271 -68 -417 -106 -375 -287 -374 -295 c-115 -6 -255 -13 -410 -22 
-139 -8 -289 -17 -441 -26 l-173 -11 c1 5 1 11 0 16 0 49 2 92 5 97 3 4 27 8 55 8 
l49 0 0 49 c0 47 1 49 35 55 19 3 64 6 100 6 l65 0 0 45 0 45 94 6 94 7 6 47 
6 48 48 -1 47 -2 3 47 3 47 47 3 47 3 -3 53 -4 52 56 0 56 0 0 50 0 50 44 0 
44 0 7 50 7 50 44 0 44 0 0 51 0 52 55 -7 55 -6 0 49 0 50 48 3 47 3 0 55 
0 55 48 3 c44 3 47 5 47 32 0 15 3 35 6 44 4 11 19 16 50 16 l44 0 0 73 
c0 41 3 108 6 150 l7 76 473 0 c261 1 484 2 497 4 20 2 22 -3 25 -50 l3 -53 100 0 
99 0 0 -49 c0 -46 2 -49 30 -54 16 -4 59 -4 95 0 l65 6 0 -36 c0 -19 2 -42 5 -50 
5 -10 18 -13 54 -9 30 2 51 0 55 -7 4 -6 32 -11 62 -11 l54 0 0 -39 c0 -35 3 -39 31 -45 
17 -3 44 -6 60 -6 l29 0 z" fill="rgb(0, 13, 58)"/>
<path d="M9000 1894l-158 21 c-154 20 -202 25 -352 23 -40 0 -88 -1 -147 -2 -53 -1 -131 -4 -228 -8 
l374 295 375 287 417 106 9 -41 c5 -22 10 -48 10 -57 0 -15 -9 -18 -56 -18 
l-57 0 6 -82 c4 -46 7 -113 7 -149 l0 -66 49 -7 49 -6 5 -58 6 -59 c-141 -94 -252 -170 -255 -175 
l-7 -10 -47 6 z" fill="rgb(50, 97, 172)"/>
<path d="M9385 2123c-11 -7 -21 -14 -32 -21 -15 -10 -29 -20 -44 -29 l-6 59 -5 58 -49 6 
-49 7 0 66 c0 36 -3 103 -7 149 l-6 82 57 0 c47 0 56 3 56 18 0 9 -5 35 -10 57 
l-9 41 271 68 688 175 0 -46 -117 -109 c-64 -60 -198 -176 -297 -259 -123 -102 -249 -194 -441 -322 
z" fill="rgb(65, 89, 173)"/>
<path d="M3756 3766l31 21 c24 18 33 20 46 10 2 -2 7 -7 13 -15 14 -18 36 -49 57 -82 
31 -48 86 -115 128 -155 48 -45 102 -85 155 -111 44 -23 116 -50 159 -59 
54 -12 107 -16 179 -14 81 3 116 10 175 33 41 15 105 50 142 77 38 27 82 69 100 94 
l32 47 36 -5 38 -5 7 67 c0 5 1 14 1 26 l4 -68 c1 -68 1 -69 -46 -123 -27 -30 -83 -80 -127 -110 
-47 -34 -112 -68 -164 -86 -75 -27 -102 -32 -209 -35 -106 -3 -136 0 -218 22 
-65 17 -122 41 -180 75 -56 33 -115 79 -168 133 -51 51 -102 116 -137 172 
l-54 91 z" fill="rgb(63, 154, 195)"/>
<path d="M5266 3469l23 25 c12 13 21 32 19 42 l0 22 12 -13 0 -8 c0 -4 1 -7 3 -7 1 0 9 -6 18 -12 
l18 -9 c40 -36 91 -74 119 -88 32 -16 86 -37 119 -45 35 -9 102 -16 157 -16 
71 0 117 6 179 24 51 15 113 43 165 75 29 18 61 42 91 68 l30 -32 c16 -17 26 -34 24 -38 
l-7 -7 0 -3 -3 1 c-35 -30 -71 -56 -100 -73 -43 -25 -112 -57 -155 -70 -57 -18 -109 -26 -193 -30 
-88 -4 -134 -1 -193 13 -47 10 -112 35 -162 61 -52 28 -113 73 -164 120 
z" fill="rgb(63, 154, 195)"/>
<path d="M6189 3527c17 14 33 30 49 45 l7 -2 c3 0 5 1 5 3 0 1 7 10 17 19 15 16 18 15 47 -10 
l29 -25 c-15 -18 -32 -36 -50 -54 -18 -18 -37 -36 -57 -53 l7 7 c2 4 -8 21 -24 38 
l-30 32 zm47 -77 c-1 -1 -2 -1 -3 -2 l3 -1 0 3 z" fill="rgb(74, 144, 193)"/>
<path d="M5266 3469c0 0 0 0 0 0 l-81 76 -3 350 c0 2 0 3 0 5 l43 0 45 0 c0 -13 0 -25 0 -38 
l0 -269 38 -35 0 -22 c2 -10 -7 -29 -19 -42 l-23 -25 z" fill="rgb(81, 139, 190)"/>
<path d="M4547 3943l8 -3 c3 0 5 3 5 7 0 4 13 -6 30 -22 25 -24 28 -31 17 -44 l-12 -16 
-3 -81 c-3 -76 -2 -82 24 -110 20 -22 28 -41 28 -67 0 -22 -9 -49 -23 -67 
-13 -18 -35 -33 -53 -37 -17 -3 -44 -2 -60 3 -16 5 -36 20 -45 33 -10 13 -17 42 -18 65 
0 31 6 48 28 70 26 27 27 33 27 126 l0 98 47 45 z" fill="rgb(74, 144, 193)"/>
<path d="M5320 3545l25 -23 c4 -5 9 -9 14 -13 l-18 9 c-9 6 -17 12 -18 12 -2 0 -3 3 -3 7 
l0 8 z" fill="rgb(81, 139, 190)"/>
<path d="M5651 3725l5 -13 c3 -6 19 -12 35 -12 21 0 29 5 30 18 l5 18 c1 -3 1 -5 2 -8 
4 -24 13 -33 31 -52 26 -27 34 -43 35 -76 1 -35 -4 -46 -32 -71 -23 -20 -43 -29 -68 -29 
-26 0 -43 8 -65 29 -22 23 -29 39 -29 69 0 29 7 49 25 70 14 17 25 36 26 43 
l0 14 z" fill="rgb(63, 154, 195)"/>
<path d="M4517 3577c-15 17 -16 25 -7 42 6 12 20 21 30 21 11 0 25 -4 31 -9 6 -4 9 -19 7 -32 
-1 -13 -12 -28 -23 -34 -16 -8 -24 -6 -38 12 z" fill="rgb(2, 1, 32)"/>
<path d="M5667 3584c-9 18 -8 27 2 40 7 9 22 16 32 16 10 0 23 -9 29 -20 8 -14 8 -26 0 -40 
-6 -11 -20 -20 -31 -20 -12 0 -26 10 -32 24 z" fill="rgb(2, 1, 32)"/>
<path d="M6238 3572c4 5 8 9 12 14 39 41 87 104 106 139 l36 64 5 5 c3 2 23 -2 45 -10 
l40 -14 -54 -92 c-25 -44 -52 -83 -85 -121 l-29 25 c-29 25 -32 26 -47 10 
-10 -9 -17 -18 -17 -19 0 -2 -2 -3 -5 -3 l-7 2 z" fill="rgb(84, 133, 192)"/>
<path d="M4973 3612l-3 1 0 96 c0 17 0 51 0 96 l45 0 43 0 c-1 -47 -2 -85 -3 -110 
0 -12 -1 -21 -1 -26 l-7 -67 -38 5 -36 5 z" fill="rgb(74, 144, 193)"/>
<path d="M4289 3946l21 -26 c10 -14 27 -25 37 -25 l21 -3 c-5 -5 -10 -10 -15 -14 l-7 2 
c-4 0 -6 -1 -6 -3 0 -2 -4 -7 -9 -12 l-4 -14 c-40 -41 -43 -54 -44 -76 -1 -29 -9 -47 -28 -65 
-20 -19 -37 -25 -72 -25 -37 0 -49 5 -69 28 -17 20 -24 40 -24 72 0 37 5 47 36 75 
28 24 44 31 68 28 21 -2 36 4 95 58 z" fill="rgb(74, 144, 193)"/>
<path d="M5961 3777l8 17 c6 14 14 18 34 14 l27 -5 0 -20 c0 -11 7 -26 15 -33 8 -7 22 -9 31 -6 
9 4 19 18 21 31 l4 24 -3 8 c-1 5 4 18 13 30 7 10 14 16 19 17 1 0 3 0 3 -1 
4 -3 7 -8 7 -10 0 -1 2 -3 5 -3 l3 0 c3 -5 5 -12 8 -19 12 -26 13 -40 4 -67 
-6 -18 -22 -43 -36 -54 -18 -15 -34 -19 -66 -16 -27 3 -50 13 -66 30 -14 14 -28 42 -31 63 
0 0 0 0 0 0 z" fill="rgb(84, 133, 192)"/>
<path d="M4705 3805c4 4 10 5 20 5 14 0 25 -5 25 -11 0 -4 3 -13 7 -22 1 -3 2 -5 3 -8 
6 -11 21 -19 36 -19 13 0 27 6 31 14 l6 14 4 11 c3 6 13 11 23 11 11 0 20 9 23 23 
l5 22 1 -53 c1 -44 -3 -57 -24 -77 -17 -18 -35 -25 -64 -25 -28 0 -48 8 -70 26 
-24 19 -31 34 -31 60 0 16 1 25 5 29 z" fill="rgb(72, 142, 185)"/>
<path d="M5360 3865l18 15 c4 8 23 22 43 30 l36 15 36 -35 c20 -19 41 -49 48 -67 8 -24 8 -41 -1 -68 
-6 -19 -21 -42 -33 -50 -12 -8 -38 -15 -59 -15 -25 0 -46 8 -65 24 -24 21 -27 30 -25 73 
1 10 1 39 2 78 z" fill="rgb(74, 144, 193)"/>
<path d="M5651 3725l0 60 -1 60 6 -18 c4 -11 16 -17 35 -17 l29 0 c2 -35 4 -58 6 -74 
l-5 -18 c-1 -13 -9 -18 -30 -18 -16 0 -32 6 -35 12 l-5 13 z" fill="rgb(74, 144, 193)"/>
<path d="M5726 3736c-2 16 -4 39 -6 74 0 2 0 4 0 7 l-6 106 16 -15 -1 -92 -1 -88 c-1 3 -1 5 -2 8 
z" fill="rgb(68, 140, 198)"/>
<path d="M4154 3758c-18 22 -18 22 4 44 17 17 26 20 40 13 9 -6 17 -21 17 -35 0 -16 -8 -28 -21 -34 
-17 -8 -25 -5 -40 12 z" fill="rgb(2, 1, 32)"/>
<path d="M6030 3803l30 5 c16 2 30 2 30 -2 0 -3 3 -6 6 -6 l5 -1 -4 -24 c-2 -13 -12 -27 -21 -31 
-9 -3 -23 -1 -31 6 -8 7 -15 22 -15 33 l0 20 z" fill="rgb(5, 6, 40)"/>
<path d="M4757 3777l5 21 c5 16 14 22 33 22 19 0 29 -6 32 -21 l6 -21 -6 -14 c-4 -8 -18 -14 -31 -14 
-15 0 -30 8 -36 19 -1 3 -2 5 -3 8 z" fill="rgb(2, 1, 32)"/>
<path d="M5420 3770c-9 16 -9 25 1 36 6 8 19 14 29 14 10 0 23 -7 30 -15 7 -8 9 -22 6 -31 
-4 -9 -17 -19 -30 -21 -18 -4 -27 1 -36 17 z" fill="rgb(3, 2, 26)"/>
<path d="M3756 3766l-4 12 c-2 7 -23 12 -52 12 -26 0 -84 9 -129 19 -45 11 -119 37 -164 60 
-46 22 -116 67 -155 100 -37 31 -63 58 -85 88 l28 28 c17 17 33 29 37 27 
l9 -1 c19 -26 44 -50 83 -81 42 -33 106 -74 143 -91 37 -17 95 -37 130 -45 
35 -8 92 -14 128 -14 37 0 98 10 144 23 48 13 104 39 146 67 9 6 21 15 36 26 
l26 -32 c12 -16 21 -34 19 -41 l-4 -9 c-13 -9 -25 -17 -37 -24 -47 -27 -112 -57 -145 -67 
-33 -9 -60 -21 -60 -27 l-4 -14 c-6 8 -11 13 -13 15 -13 10 -22 8 -46 -10 
l-31 -21 z" fill="rgb(68, 140, 198)"/>
<path d="M6392 3789l-4 8 c-1 4 -33 18 -70 31 -38 12 -111 50 -165 85 -46 30 -107 78 -173 137 
l0 5 c0 3 -1 5 -3 5 -2 0 -6 3 -10 6 -3 3 10 20 30 37 l35 30 6 -5 c137 -124 176 -154 247 -188 
52 -25 113 -45 159 -52 56 -9 93 -10 151 -1 49 7 110 26 170 52 56 25 119 63 159 96 
0 0 0 0 0 1 l31 -36 28 -33 c-22 -18 -45 -35 -67 -50 -61 -40 -116 -66 -182 -87 
-52 -17 -128 -33 -170 -37 -41 -3 -76 -10 -79 -14 l-3 -9 -40 14 c-22 8 -42 12 -45 10 
l-5 -5 z" fill="rgb(96, 118, 193)"/>
<path d="M4705 3805l-5 19 c0 8 18 31 40 52 33 31 40 45 40 76 l0 38 45 0 47 0 c2 -80 4 -133 7 -135 
l9 -10 -5 -22 c-3 -14 -12 -23 -23 -23 -10 0 -20 -5 -23 -11 l-4 -11 -6 21 
c-3 15 -13 21 -32 21 -19 0 -28 -6 -33 -22 l-5 -21 c-4 9 -7 18 -7 22 0 6 -11 11 -25 11 
-10 0 -16 -1 -20 -5 z" fill="rgb(84, 133, 192)"/>
<path d="M5961 3777c-5 34 -27 58 -196 218 l-86 81 30 34 32 36 c30 -28 68 -63 109 -101 
148 -138 176 -159 200 -157 16 2 40 -3 53 -12 l27 -22 c-5 -1 -12 -7 -19 -17 
-9 -12 -14 -25 -13 -30 l3 -8 -5 1 c-3 0 -6 3 -6 6 0 4 -14 4 -30 2 l-30 -5 
-27 5 c-20 4 -28 0 -34 -14 l-8 -17 zm169 77 l4 7 c3 -1 6 -2 7 -3 0 -1 3 -8 7 -18 l-3 0 c-3 0 -5 2 -5 3 0 2 -3 7 -7 10 
0 1 -2 1 -3 1 z" fill="rgb(92, 125, 190)"/>
<path d="M4970 3805c0 27 0 57 0 90 l45 1 44 1 c-1 -33 -1 -64 -1 -92 l-43 0 -45 0 
z" fill="rgb(84, 133, 192)"/>
<path d="M5650 3845l0 -3 c0 0 0 0 -1 -1 l1 14 c0 8 -2 15 -5 15 -3 0 10 15 28 33 
l30 30 11 -10 6 -106 c0 -3 0 -5 0 -7 l-29 0 c-19 0 -31 6 -35 17 l-6 18 
z" fill="rgb(84, 133, 192)"/>
<path d="M5360 3865c2 58 4 138 5 220 1 23 1 46 2 70 l11 15 c4 8 24 17 45 20 27 5 37 2 37 -8 
0 -2 4 -7 10 -15 21 -25 69 -75 125 -129 l108 -105 -30 -30 c-18 -18 -31 -33 -28 -33 
3 0 5 -7 5 -15 l-1 -14 c-1 -1 -2 -1 -4 -1 -3 0 -5 6 -5 13 0 6 -39 49 -87 95 
-48 45 -89 82 -90 82 -2 0 -4 -24 -5 -52 l-1 -53 -36 -15 c-20 -8 -39 -22 -43 -30 
l-18 -15 z" fill="rgb(96, 118, 193)"/>
<path d="M4353 3878c-10 -10 -19 -19 -26 -27 l4 14 c5 5 9 10 9 12 0 2 2 3 6 3 l7 -2 
z" fill="rgb(84, 128, 191)"/>
<path d="M4547 3943l69 67 7 0 c4 0 7 2 7 4 0 2 6 9 14 15 11 9 20 6 43 -16 16 -15 27 -32 25 -36 
l-2 -4 c-9 -9 -20 -18 -30 -28 l-85 -80 12 16 c11 13 8 20 -17 44 -17 16 -30 26 -30 22 
0 -4 -2 -7 -5 -7 l-8 3 z" fill="rgb(92, 125, 190)"/>
<path d="M4289 3946c26 23 60 55 107 99 l83 79 20 -18 c11 -10 23 -28 27 -38 l7 -21 
-56 -52 c-47 -44 -82 -77 -109 -103 l-21 3 c-10 0 -27 11 -37 25 l-21 26 
z" fill="rgb(84, 128, 191)"/>
<path d="M4970 3895c0 84 0 185 0 285 0 42 0 82 0 120 l45 0 45 0 c0 -45 0 -93 0 -142 
0 -93 -1 -183 -1 -261 l-44 -1 -45 -1 z" fill="rgb(96, 118, 193)"/>
<path d="M5182 3900c0 64 -1 132 -1 198 l39 -5 c22 -3 41 -4 41 -2 1 1 2 25 3 64 l5 -12 
c1 -7 1 -112 1 -243 l-45 0 -43 0 z" fill="rgb(92, 125, 190)"/>
<path d="M4051 3996c46 37 116 97 176 152 l144 134 5 13 c3 8 12 11 20 8 8 -3 21 -18 30 -34 
8 -16 20 -28 27 -26 l12 2 -16 -15 -4 0 c-3 0 -5 -1 -5 -3 0 -1 -8 -11 -18 -22 
l-19 -18 -1 -1 -99 -93 c-94 -88 -158 -143 -211 -179 l4 9 c2 7 -7 25 -19 41 
l-26 32 z" fill="rgb(92, 125, 190)"/>
<path d="M4780 3990l0 21 c0 11 -3 19 -7 17 -4 -1 -29 -24 -63 -55 l2 4 c2 4 -9 21 -25 36 
-23 22 -32 25 -43 16 -8 -6 -14 -13 -14 -15 0 -2 -3 -4 -7 -4 l-7 0 24 23 
140 135 0 132 45 0 45 0 c0 -25 0 -51 0 -78 0 -87 1 -168 2 -232 l-47 0 
-45 0 z" fill="rgb(96, 118, 193)"/>
<path d="M6924 4036c24 19 46 41 64 62 l27 -36 c12 -18 26 -28 33 -24 l14 6 c-4 -4 -7 -8 -10 -12 
-3 -4 -7 -8 -11 -12 l-5 0 c-3 0 -6 -1 -6 -3 0 -1 -10 -14 -22 -27 l-9 -10 
-16 -13 c0 0 0 0 0 0 l-28 33 -31 36 z" fill="rgb(104, 107, 194)"/>
<path d="M6999 3980c-5 -4 -10 -8 -16 -13 l16 13 zm42 40 c-11 -12 -26 -26 -42 -40 l9 10 c12 13 22 26 22 27 0 2 3 3 6 3 l5 0 
z" fill="rgb(127, 94, 192)"/>
<path d="M4005 4170l12 -37 c7 -23 8 -41 2 -45 l-9 -8 -150 0 c-180 0 -183 0 -212 -25 
-19 -16 -42 -25 -64 -25 -23 0 -44 9 -66 29 -27 24 -33 36 -33 71 0 35 6 47 33 71 
24 22 42 29 73 29 32 0 47 -7 71 -30 l30 -30 156 0 157 0 z" fill="rgb(67, 132, 197)"/>
<path d="M6020 4260l0 5 c0 3 -2 5 -5 5 -3 0 12 12 33 28 l37 27 76 -78 77 -77 157 0 
157 0 35 30 c25 23 43 30 74 30 31 0 47 -7 70 -29 21 -22 29 -39 29 -65 
0 -25 -9 -45 -29 -68 -24 -27 -36 -33 -69 -33 -27 0 -52 8 -71 23 -28 21 -42 22 -209 24 
l-179 3 -117 112 -66 63 z" fill="rgb(100, 112, 197)"/>
<path d="M6988 4098c13 16 24 32 33 47 27 48 30 62 26 113 l-4 58 -2 2 c0 1 -2 3 -3 5 
-2 1 -99 3 -215 5 l-213 -3 c-135 3 -274 4 -347 3 l-178 -3 -37 -27 c-21 -16 -36 -28 -33 -28 
3 0 5 -2 5 -5 l0 -5 -50 48 0 137 -1 136 704 2 704 1 -44 -67 c-25 -38 -74 -93 -109 -123 
-35 -30 -69 -54 -74 -54 -6 0 -10 -35 -10 -82 0 -61 -6 -95 -20 -126 -10 -21 -34 -58 -58 -88 
l-14 -6 c-7 -4 -21 6 -33 24 l-27 36 z" fill="rgb(127, 94, 192)"/>
<path d="M4479 4124l86 81 38 -27 c20 -16 35 -28 32 -28 -3 0 -5 -2 -5 -5 l2 -6 -9 -4 
c-3 -3 -8 -5 -10 -5 -1 0 -3 -2 -3 -5 l1 -6 -78 -72 -7 21 c-4 10 -16 28 -27 38 
l-20 18 z" fill="rgb(96, 118, 193)"/>
<path d="M5980 4050c-22 20 -44 40 -67 62 l-143 137 2 173 3 173 47 3 47 3 3 -163 
3 -163 157 -142 -35 -30 c-20 -17 -33 -34 -30 -37 4 -3 8 -6 10 -6 2 0 3 -2 3 -5 
l0 -5 z" fill="rgb(113, 104, 194)"/>
<path d="M3167 4057c-9 13 -17 26 -25 40 -33 61 -37 76 -39 149 l-2 82 -86 76 c-47 42 -101 100 -120 130 
-19 29 -32 56 -29 59 3 3 117 2 254 -2 l249 -6 c-9 -1 -16 -1 -19 -1 l-50 -7 0 -38 
0 -39 c-21 0 -73 0 -130 0 l-130 0 48 -41 48 -41 237 1 c33 0 73 0 117 0 
l0 -45 0 -45 -267 4 -16 -24 c-10 -13 -17 -42 -17 -65 0 -27 10 -62 29 -98 
7 -12 14 -23 22 -35 l-9 1 c-4 2 -20 -10 -37 -27 l-28 -28 z" fill="rgb(67, 132, 197)"/>
<path d="M4005 4170l69 67 c37 38 70 74 73 81 0 0 0 0 0 0 1 9 -45 11 -199 10 l-203 -3 
-60 1 -85 1 0 47 0 46 c102 0 210 0 295 0 l285 0 0 40 0 40 -430 0 c-52 0 -103 0 -150 0 
l0 39 0 39 103 4 102 8 c7 0 13 0 20 0 234 0 427 0 430 0 3 0 7 -64 10 -143 
l6 -143 -114 -112 -114 -112 -33 0 9 8 c6 4 5 22 -2 45 l-12 37 z" fill="rgb(100, 112, 197)"/>
<path d="M5679 4076l-102 97 28 12 c19 8 42 18 50 21 3 1 5 4 7 9 l12 -6 c1 -1 27 -26 67 -63 
l-32 -36 -30 -34 z" fill="rgb(103, 116, 193)"/>
<path d="M3555 4110c-17 19 -17 21 1 41 11 12 26 18 38 15 11 -3 24 -12 29 -21 6 -11 3 -22 -9 -36 
-9 -10 -22 -19 -29 -19 -7 0 -20 9 -30 20 z" fill="rgb(2, 1, 32)"/>
<path d="M5181 4098c0 50 0 98 -1 143 l11 -6 c6 -4 9 -16 6 -26 -4 -16 0 -19 29 -19 
l33 0 4 128 6 127 -2 -102 c-1 -74 -2 -142 -3 -188 -1 -39 -2 -63 -3 -64 
0 -2 -19 -1 -41 2 l-39 5 z" fill="rgb(103, 116, 193)"/>
<path d="M6636 4103c-10 7 -17 22 -15 33 2 10 14 23 26 29 17 7 27 6 39 -7 10 -10 14 -23 10 -36 
-4 -12 -15 -23 -25 -27 -9 -3 -25 1 -35 8 z" fill="rgb(3, 2, 26)"/>
<path d="M4632 4139l-21 -20 -1 6 c0 3 2 5 3 5 2 0 7 2 10 5 l9 4 zm-67 66 l0 0 5 195 5 195 45 0 45 0 3 -210 2 -210 -38 -36 -2 6 c0 3 2 5 5 5 
3 0 -12 12 -32 28 l-38 27 z" fill="rgb(100, 112, 197)"/>
<path d="M5367 4155c2 121 4 250 6 310 l2 130 45 0 45 0 3 -218 2 -210 c-6 8 -10 13 -10 15 
0 10 -10 13 -37 8 -21 -3 -41 -12 -45 -20 l-11 -15 z" fill="rgb(113, 104, 194)"/>
<path d="M5577 4173l-7 -3 0 210 0 210 50 0 50 0 0 -189 c0 -121 -1 -168 -8 -186 -2 -5 -4 -8 -7 -9 
-8 -3 -31 -13 -50 -21 l-28 -12 z" fill="rgb(113, 104, 194)"/>
<path d="M4449 4230l-46 -43 19 18 c10 11 18 21 18 22 0 2 2 3 5 3 l4 0 zm-46 -43 l-1 -1 1 1 z" fill="rgb(103, 109, 190)"/>
<path d="M5180 4241c0 74 0 137 0 177 l0 172 46 0 46 0 -3 -145 -6 -127 -4 -128 -33 0 
c-29 0 -33 3 -29 19 3 10 0 22 -6 26 l-11 6 z" fill="rgb(113, 104, 194)"/>
<path d="M4371 4282l2 156 2 157 48 3 47 3 -2 -178 -3 -178 -12 -2 c-7 -2 -19 10 -27 26 
-9 16 -22 31 -30 34 -8 3 -17 0 -20 -8 l-5 -13 z" fill="rgb(103, 109, 190)"/>
<path d="M4780 4300l0 79 0 211 45 0 c25 0 45 -2 45 -5 0 -2 0 -125 0 -285 l-45 0 
-45 0 z" fill="rgb(104, 107, 194)"/>
<path d="M4970 4300c0 151 0 265 0 273 0 14 9 17 45 17 25 0 45 -2 45 -5 0 -2 0 -121 0 -285 
l-45 0 -45 0 z" fill="rgb(104, 107, 194)"/>
<path d="M7043 4316l-302 7 c-41 1 -86 2 -131 2 l213 3 c116 -2 213 -4 215 -5 1 -2 3 -4 3 -5 
l2 -2 z" fill="rgb(46, 37, 94)"/>
<path d="M4147 4318l-402 7 203 3 c154 1 200 -1 199 -10 z" fill="rgb(32, 45, 92)"/>
<path d="M3490 4419c35 0 72 1 110 1 l0 -46 0 -47 -110 2 0 45 0 45 z" fill="rgb(83, 120, 197)"/>
<path d="M3300 4500c5 0 9 0 10 0 4 0 125 0 290 0 47 0 98 0 150 0 l430 0 0 -40 0 -40 -285 0 
c-85 0 -193 0 -295 0 -38 0 -75 -1 -110 -1 -44 0 -84 0 -117 0 l-237 -1 -48 41 
-48 41 130 0 c57 0 109 0 130 0 z" fill="rgb(2, 1, 32)"/>
<path d="M6580 4420l-515 5 -3 38 -3 37 570 0 571 0 -45 -45 c-25 -25 -48 -44 -52 -42 
-5 1 -240 4 -523 7 z" fill="rgb(2, 1, 32)"/>
<path d="M3369 4585c61 3 239 5 436 5 l-102 -8 -103 -4 0 -39 0 -39 c-165 0 -286 0 -290 0 
-1 0 -5 0 -10 0 l0 39 0 38 50 7 c3 0 10 0 19 1 z" fill="rgb(89, 120, 191)"/>
<path d="M5969 4581l8 7 c4 4 321 5 704 2 l696 -6 -704 -1 -704 -2 z" fill="rgb(131, 93, 197)"/>
<path d="M2855 5619c1 2 2 2 3 2 6 0 28 -1 47 -1 l35 0 0 0 2 -197 c0 -65 0 -134 0 -188 
0 -37 -1 -66 -1 -82 -2 -51 0 -73 9 -73 6 0 140 125 298 278 l287 277 3 -395 
c1 -217 1 -399 -2 -405 -2 -6 -26 -8 -55 -7 l-51 4 0 275 c0 169 -4 273 -9 271 
-6 -1 -136 -126 -290 -275 -154 -150 -283 -273 -286 -273 -3 0 -4 178 -3 396 
2 283 5 379 13 393 z" fill="rgb(254, 254, 254)"/>
<path d="M7034 5105c1 54 3 120 4 190 l5 325 46 0 46 0 0 0 0 -397 0 -398 -51 -3 c-49 -3 -53 -1 -152 73 
-56 41 -102 77 -102 80 0 3 14 21 30 41 l31 35 65 -46 c36 -26 68 -44 71 -41 
2 2 4 57 7 141 z" fill="rgb(254, 254, 254)"/>
<path d="M7962 4890c-56 39 -102 76 -102 83 0 7 15 27 33 45 l33 32 67 -51 67 -52 0 336 
0 337 24 6 c13 3 37 4 52 2 l29 -3 3 -402 2 -403 -53 0 c-50 0 -60 5 -155 70 
z" fill="rgb(254, 254, 254)"/>
<path d="M2738 5265c1 -1 2 -2 2 -2 0 -7 0 -29 0 -48 l0 -35 0 0 -281 0 -281 0 4 -66 
c3 -50 10 -73 29 -97 13 -18 46 -44 72 -59 l48 -28 209 0 210 0 0 -50 0 -50 -213 0 
c-164 0 -225 4 -266 16 -38 11 -68 30 -107 68 -36 35 -61 70 -74 105 -17 42 -20 76 -20 199 
0 136 2 153 25 209 17 41 42 76 76 108 27 25 66 54 87 63 25 11 80 19 170 25 
72 4 175 4 227 1 l95 -7 0 -48 0 -49 -205 0 c-192 0 -208 -1 -252 -22 -29 -14 -59 -39 -76 -63 
-20 -28 -30 -57 -34 -97 l-6 -57 282 -3 c195 -2 267 -5 279 -13 z" fill="rgb(254, 254, 254)"/>
<path d="M3855 4855c-49 19 -80 40 -124 84 -44 44 -66 76 -86 127 -22 55 -28 85 -28 154 
0 71 4 96 28 155 21 52 43 85 86 128 34 34 82 69 116 85 54 25 69 27 228 32 
94 3 187 4 208 2 l37 -3 0 -220 0 -219 -114 0 -113 0 -66 44 c-36 24 -63 47 -60 50 
4 3 62 6 129 6 l123 0 3 118 c2 64 1 118 -1 120 -2 1 -59 2 -126 2 -78 0 -139 -5 -170 -15 
-27 -8 -67 -28 -90 -44 -26 -19 -55 -54 -76 -91 -28 -50 -34 -74 -37 -133 
-3 -60 1 -82 23 -134 16 -38 41 -75 67 -98 22 -20 57 -44 77 -53 28 -13 79 -18 231 -22 
l195 -5 3 -47 3 -48 -200 0 c-191 0 -204 1 -266 25 z" fill="rgb(254, 254, 254)"/>
<path d="M4420 5108c0 243 2 283 18 323 10 25 30 61 46 81 15 20 54 51 87 70 l61 33 219 3 
219 3 0 -50 0 -51 -195 0 c-167 0 -201 -3 -239 -18 -28 -12 -56 -34 -75 -61 
l-31 -42 0 -284 0 -285 -55 0 -55 0 0 278 z" fill="rgb(254, 254, 254)"/>
<path d="M5260 5563c0 -66 1 -179 1 -305 l4 -363 c-1 -3 -1 -6 -1 -8 l-7 -57 -48 0 
-49 0 2 398 3 397 48 3 c26 2 47 1 47 -2 0 -2 0 -24 0 -63 z" fill="rgb(254, 254, 254)"/>
<path d="M5358 5325l-2 170 c1 24 3 51 3 73 l1 62 50 0 50 0 0 -175 0 -175 265 0 265 0 0 -50 
0 -50 -266 0 -266 0 4 -55 c3 -35 13 -69 29 -92 13 -21 43 -51 67 -68 l42 -30 200 -3 
200 -3 0 -50 0 -49 -195 0 c-171 0 -202 2 -251 20 -31 12 -75 39 -100 62 
-25 23 -57 64 -70 90 -23 46 -24 56 -25 270 l-1 53 z" fill="rgb(254, 254, 254)"/>
<path d="M6759 5277l0 -8 c1 -5 -2 -9 -5 -9 -3 0 -4 -15 -1 -32 l4 -33 -4 -7 c-2 -5 -130 -8 -284 -8 
l-281 0 4 -67 c3 -62 7 -72 41 -110 24 -27 55 -48 83 -58 34 -11 91 -15 239 -15 
l195 0 0 -50 0 -50 -210 0 c-173 0 -219 3 -262 18 -36 11 -69 33 -104 68 
-30 30 -61 72 -73 102 -18 43 -21 71 -21 201 0 127 3 159 20 205 14 37 36 69 70 100 
28 26 73 58 100 72 48 23 57 24 271 24 l220 0 -3 -52 -3 -53 -202 3 c-193 2 -205 1 -250 -20 
-25 -13 -60 -40 -76 -61 -25 -30 -32 -49 -35 -97 l-4 -59 285 -2 286 -2 
z" fill="rgb(254, 254, 254)"/>
<path d="M7332 4858c-33 19 -58 44 -78 78 l-29 49 -3 225 c-3 218 -3 227 20 280 16 38 37 66 66 88 
23 18 62 37 87 43 24 6 93 10 153 8 91 -4 115 -8 156 -29 33 -17 57 -40 79 -75 
l32 -50 3 -205 c2 -113 1 -228 -3 -257 -4 -30 -17 -68 -31 -89 -14 -20 -46 -50 -71 -65 
-45 -28 -49 -29 -189 -29 -139 0 -145 1 -192 28 z" fill="rgb(254, 254, 254)"/>
<path d="M5260 5563l5 -5 c3 -2 5 -142 5 -309 0 -157 -2 -309 -5 -354 l-4 363 c0 126 -1 239 -1 305 
z" fill="rgb(78, 79, 98)"/>
<path d="M7417 4937l104 -1 104 -1 -104 1 -104 1 z" fill="rgb(94, 94, 111)"/>
<path d="M7417 4937l-29 16 c-16 9 -35 32 -43 51 -3 6 -5 13 -7 22 l2 116 c0 61 -2 145 -5 193 
0 3 0 5 -1 8 -5 67 -3 89 10 115 9 17 30 39 47 48 25 12 55 15 145 12 112 -3 114 -4 141 -33 
l28 -30 3 -222 3 -221 -32 -36 c-17 -20 -36 -37 -43 -39 l-11 -2 -104 1 
-104 1 z" fill="rgb(2, 1, 32)"/>
<path d="M7338 5026c-6 29 -7 77 -7 161 l4 148 c3 -48 5 -132 5 -193 l-2 -116 z" fill="rgb(94, 94, 111)"/>
<path d="M7034 5105l-3 258 c-1 212 1 259 13 263 8 3 31 4 52 2 l39 -8 -46 0 -46 0 -5 -325 
c-1 -70 -3 -136 -4 -190 z" fill="rgb(165, 162, 172)"/>
<path d="M2738 5265l6 -37 -4 -48 0 35 c0 19 0 41 0 48 0 0 -1 1 -2 2 z" fill="rgb(208, 209, 211)"/>
<path d="M5592 5202c-7 7 -12 25 -12 40 0 28 0 28 65 28 59 0 65 -2 65 -21 0 -11 -5 -29 -10 -40 
-8 -14 -21 -19 -53 -19 -24 0 -48 5 -55 12 z" fill="rgb(255, 255, 255)"/>
<path d="M6759 5277l3 -6 c2 -3 1 -22 -1 -41 l-4 -35 -4 33 c-3 17 -2 32 1 32 3 0 6 4 5 9 
l0 8 z" fill="rgb(108, 110, 122)"/>
<path d="M2942 5235c0 54 0 123 0 188 l-2 197 0 0 1 0 1 1 c5 -13 8 -98 8 -197 l-8 -189 
z" fill="rgb(108, 110, 122)"/>
<path d="M5358 5325l-7 40 c-3 22 -3 63 1 90 1 11 2 25 4 40 l2 -170 z" fill="rgb(109, 107, 125)"/>
<path d="M2855 5619l34 9 c24 2 48 -1 53 -6 0 0 0 0 0 -1 l-1 -1 -1 0 -35 0 c-19 0 -41 1 -47 1 
-1 0 -2 0 -3 -2 z" fill="rgb(176, 173, 184)"/>
<path d="M3440 5880l-9 38 c-6 31 -5 41 7 49 l10 6 c31 0 63 0 95 0 218 -2 448 0 511 3 
l114 6 4 39 3 38 -525 3 -335 2 -3 37 c-4 37 -7 40 -28 36 -13 -2 -29 2 -35 9 
-3 4 -8 7 -13 10 l462 4 461 0 -74 65 -75 65 -171 0 c-161 0 -172 -1 -188 -21 
-11 -14 -33 -23 -62 -26 -38 -4 -50 -1 -76 21 -17 14 -33 39 -37 56 -3 19 0 46 9 66 
10 24 26 39 50 50 29 12 44 13 71 4 18 -6 42 -22 53 -36 18 -23 24 -24 139 -24 
l121 0 -179 165 c-98 91 -185 165 -193 165 -4 0 -16 -5 -32 -14 l-19 42 
-18 41 c6 3 13 7 20 10 63 33 137 62 196 77 59 15 125 24 171 24 l75 0 74 84 
c45 52 107 108 160 145 47 32 124 76 171 95 47 20 122 43 165 51 46 9 137 15 215 15 
104 0 157 -5 233 -22 l97 -23 3 -683 2 -684 -42 5 c-23 3 -44 9 -45 13 -2 5 -3 209 -4 453 
0 141 -1 267 -3 346 -1 58 -3 91 -5 89 -1 -1 -3 -4 -7 -8 -9 -11 -25 -29 -42 -48 
l-42 -48 0 -395 0 -395 -51 0 -51 0 3 218 4 217 -334 317 -335 318 -27 -33 
c-16 -17 -28 -37 -29 -44 0 -7 9 -17 20 -23 11 -5 150 -133 310 -282 l290 -273 0 -214 
c0 -209 0 -213 -20 -207 -11 3 -33 6 -50 6 l-30 0 0 188 0 187 -281 264 
c-154 145 -282 261 -285 258 -3 -3 -9 -22 -14 -41 -8 -36 -8 -36 123 -164 
72 -70 181 -174 244 -232 l113 -105 0 -176 0 -177 -46 -4 c-25 -2 -47 -1 -50 1 
-2 2 -4 75 -4 161 l0 157 -247 234 -247 234 12 64 c6 36 10 66 9 68 -2 1 -49 -4 -105 -12 
-56 -8 -111 -18 -122 -23 -17 -6 27 -51 290 -294 l310 -287 0 -151 c0 -82 -2 -150 -5 -150 
-3 0 -322 0 -710 0 l-115 0 z" fill="rgb(131, 93, 197)"/>
<path d="M6089 6531c10 9 19 18 28 26 l-8 -11 c-5 -6 -9 -11 -9 -13 0 -2 -2 -3 -5 -3 
l-6 1 zm0 0 l-2 -8 c-1 -4 10 -23 26 -41 15 -19 27 -31 27 -28 0 3 3 6 6 6 l4 0 
c-24 -23 -49 -47 -74 -71 l-206 -195 0 -156 0 -156 -46 -4 c-25 -2 -47 -1 -50 1 
-2 2 -4 82 -4 177 l0 172 172 164 c49 46 102 96 147 139 z" fill="rgb(149, 87, 198)"/>
<path d="M3440 5880l-591 0 16 31 c9 16 40 60 69 97 29 37 78 85 108 107 l56 40 -4 70 
c-3 50 1 90 16 141 11 39 41 103 66 144 30 47 76 99 134 150 53 47 107 85 168 119 
l18 -41 19 -42 c-16 -9 -37 -22 -59 -36 -42 -27 -105 -81 -140 -119 -35 -38 -78 -98 -96 -134 
-22 -46 -34 -85 -37 -129 -3 -35 0 -75 6 -90 6 -17 18 -28 30 -28 5 0 11 -2 17 -4 
5 -3 10 -6 13 -10 6 -7 22 -11 35 -9 21 4 24 1 28 -36 l3 -37 -190 1 -50 -40 
c-20 -16 -38 -31 -47 -40 -3 -4 -6 -6 -6 -7 -2 -5 25 -7 60 -5 9 0 29 0 58 0 
68 1 182 1 308 0 l-10 -6 c-12 -8 -13 -18 -7 -49 l9 -38 z" fill="rgb(101, 104, 197)"/>
<path d="M5180 6410l39 -6 c24 -4 42 -13 46 -23 l11 -16 c-1 -42 -2 -85 -3 -127 l-6 -358 -44 0 
-43 0 0 265 c0 64 0 160 0 265 z" fill="rgb(142, 88, 195)"/>
<path d="M6089 6531l6 -1 c3 0 5 1 5 3 0 2 4 7 9 13 l8 11 c30 29 56 54 71 68 l74 71 -12 43 
-11 42 -33 -28 c-18 -15 -146 -134 -284 -263 l-128 -120 -7 0 c-4 0 -7 -1 -7 -3 
0 -2 -3 -8 -7 -13 l-7 -10 -9 -8 -2 21 c-1 13 -12 27 -28 34 -14 7 -24 16 -21 21 
l5 9 3 2 2 3 121 114 c146 139 288 270 316 291 l49 39 -29 33 c-15 17 -33 32 -39 32 
-6 0 -158 -139 -338 -309 l-326 -309 0 -219 0 -218 -50 0 -51 0 1 394 2 394 -46 56 
-46 57 0 -93 c0 -40 -2 -173 -4 -323 l-11 16 c-4 10 -22 19 -46 23 l-39 6 
c0 134 0 283 0 409 l0 409 83 23 c69 20 108 24 255 27 163 2 177 0 276 -27 
57 -16 137 -46 177 -67 40 -21 112 -70 159 -109 47 -39 103 -95 125 -125 
l38 -55 104 -7 c76 -6 134 -18 223 -46 104 -32 133 -47 227 -112 82 -57 124 -94 174 -157 
39 -48 78 -110 95 -150 23 -56 29 -85 30 -163 l3 -95 89 -85 c54 -52 102 -108 122 -142 
l32 -58 -711 0 -712 0 3 153 3 152 310 285 c235 216 307 287 296 294 -8 5 -63 15 -124 23 
-60 7 -111 12 -113 10 -2 -2 1 -32 7 -66 l11 -63 -40 -41 c-17 -18 -88 -87 -172 -167 
l-4 0 c-3 0 -6 -3 -6 -6 0 -3 -12 9 -27 28 -16 18 -27 37 -26 41 l2 8 z" fill="rgb(175, 71, 202)"/>
<path d="M5757 6336l-86 -81 -1 -187 0 -188 -50 0 -50 0 0 204 0 204 141 133 -5 -9 
c-3 -5 7 -14 21 -21 16 -7 27 -21 28 -34 l2 -21 zm-46 85 l5 5 -2 -3 -3 -2 z" fill="rgb(149, 87, 198)"/>
<path d="M3028 5985l55 -2 57 -10 c-29 0 -49 0 -58 0 -35 -2 -62 0 -60 5 0 1 3 3 6 7 
z" fill="rgb(49, 58, 124)"/>
<path d="M3448 5973c-126 1 -240 1 -308 0 l-57 10 -55 2 c9 9 27 24 47 40 l50 40 190 -1 
335 -2 525 -3 -3 -38 -4 -39 -114 -6 c-63 -3 -293 -5 -511 -3 -32 0 -64 0 -95 0 
z" fill="rgb(2, 1, 32)"/>
<path d="M6123 5978l-53 3 0 39 0 40 528 2 527 3 49 -40 50 -40 -35 -5 c-18 -3 -254 -5 -524 -5 
-269 0 -514 1 -542 3 z" fill="rgb(5, 6, 40)"/>
<path d="M6575 6147l173 1 c94 1 201 5 236 8 l5 0 -41 -13 c-24 -5 -125 -5 -225 0 
-40 1 -92 3 -148 4 z" fill="rgb(208, 63, 213)"/>
<path d="M6575 6147c-16 1 -33 1 -50 2 l233 11 232 -4 -1 0 -5 0 c-35 -3 -142 -7 -236 -8 
l-173 -1 z" fill="rgb(105, 37, 131)"/>
<path d="M6525 6149c-74 1 -151 3 -212 4 -126 1 -230 4 -233 7 -3 3 1 6 8 8 6 1 42 29 78 62 
l67 60 173 0 c115 0 174 -4 174 -11 0 -5 16 -17 36 -25 22 -9 48 -12 70 -8 
20 4 44 18 59 36 17 20 25 42 25 67 0 28 -7 44 -29 65 -27 26 -35 28 -82 24 
-41 -4 -58 -11 -75 -32 -23 -25 -26 -26 -143 -26 l-120 0 182 165 c99 91 186 165 193 165 
7 0 45 -21 85 -47 40 -26 102 -79 138 -117 37 -40 80 -100 98 -137 18 -36 36 -86 39 -111 
4 -26 3 -67 0 -91 l-7 -46 -59 -5 -232 4 -233 -11 z" fill="rgb(2, 1, 32)"/>
<path d="M3236 6156c-6 2 -12 4 -17 4 -12 0 -24 11 -30 28 -6 15 -9 55 -6 90 3 44 15 83 37 129 
18 36 61 96 96 134 35 38 98 92 140 119 22 14 43 27 59 36 16 9 28 14 32 14 
8 0 95 -74 193 -165 l179 -165 -121 0 c-115 0 -121 1 -139 24 -11 14 -35 30 -53 36 
-27 9 -42 8 -71 -4 -24 -11 -40 -26 -50 -50 -9 -20 -12 -47 -9 -66 4 -17 20 -42 37 -56 
26 -22 38 -25 76 -21 29 3 51 12 62 26 16 20 27 21 188 21 l171 0 75 -65 
74 -65 -461 0 -462 -4 z" fill="rgb(2, 1, 32)"/>
<path d="M3541 6327c-6 11 -6 24 0 35 5 10 21 18 34 18 14 0 29 -8 35 -21 9 -15 8 -24 -1 -35 
-6 -8 -22 -14 -35 -14 -13 0 -27 8 -33 17 z" fill="rgb(3, 2, 26)"/>
<path d="M6635 6337c0 20 7 31 22 38 18 7 27 6 40 -8 14 -13 15 -21 7 -35 -6 -9 -24 -19 -40 -20 
-25 -3 -28 -1 -29 25 z" fill="rgb(3, 2, 26)"/>
<path d="M5794 6370l-28 -26 7 10 c4 5 7 11 7 13 0 2 3 3 7 3 l7 0 z" fill="rgb(149, 87, 198)"/>
<path d="M0 6700l0 400 99 0 100 0 3 -47 3 -48 47 -3 48 -3 0 45 0 46 44 0 45 0 7 -46 
7 -46 96 4 96 3 3 -52 3 -53 50 0 49 0 0 50 0 50 145 0 145 0 0 45 0 45 150 0 
150 0 0 55 0 55 50 0 50 0 0 50 0 50 50 0 50 0 0 50 0 50 50 0 50 0 0 50 
0 50 50 0 49 0 7 50 7 50 43 0 44 0 0 50 0 50 50 0 50 0 0 44 c0 31 5 46 16 50 
9 3 31 6 49 6 33 0 34 1 37 48 l3 47 53 3 52 3 0 43 c0 35 4 45 20 50 11 3 31 6 44 6 
23 0 25 5 28 48 l3 47 53 3 52 3 0 55 0 54 44 0 44 0 7 50 c7 50 7 50 44 50 
33 0 38 4 49 34 12 31 18 36 59 42 l45 7 -5 38 -5 38 290 30 724 75 0 -14 
c0 -8 1 -27 2 -42 2 -27 1 -28 -53 -28 -30 0 -77 -3 -104 -6 -43 -6 -51 -11 -60 -35 
-7 -22 -17 -28 -43 -31 -33 -3 -33 -3 -36 -60 l-3 -58 -54 0 -55 0 0 -50 
0 -50 -44 0 -44 0 -7 -50 -7 -50 -43 0 -43 0 -7 -50 -7 -50 -43 0 -43 0 -7 -50 
-7 -50 -50 0 -49 0 2 -52 3 -53 -46 -3 c-46 -3 -47 -4 -53 -43 -7 -38 -7 -39 -50 -39 
-23 0 -48 -6 -54 -13 -6 -8 -9 -16 -7 -18 2 -2 6 -21 9 -42 l6 -39 -55 -5 
-54 -6 0 -44 0 -43 -45 -6 c-43 -6 -44 -7 -51 -50 l-6 -44 -49 0 -48 0 -3 -52 
-3 -53 -42 -3 c-40 -3 -43 -5 -43 -32 0 -15 -3 -35 -6 -44 -5 -13 -24 -16 -105 -16 
l-99 0 0 -50 0 -50 -50 0 -50 0 0 -50 0 -50 -50 0 -50 0 0 -50 0 -50 -45 0 
-45 0 0 -56 0 -55 -52 3 -53 3 -1 -70 c0 -38 -1 -80 -2 -92 -2 -20 -8 -23 -46 -23 
-25 0 -47 -4 -50 -8 -3 -5 -118 -7 -256 -6 l-252 2 4 -51 3 -52 -102 3 -103 3 0 -49 
0 -49 -65 -7 c-36 -3 -103 -3 -150 0 l-85 7 0 48 c0 46 -2 49 -25 49 -14 0 -34 3 -44 6 
-16 5 -20 20 -26 94 l-7 87 -60 7 c-34 3 -121 6 -194 6 l-134 0 z" fill="rgb(2, 9, 49)"/>
<path d="M5470 6513l0 72 123 120 c67 66 141 136 165 155 39 32 42 39 42 83 0 39 -5 53 -26 72 
-20 19 -38 25 -71 25 -36 0 -50 -6 -74 -29 -22 -22 -29 -39 -29 -68 0 -21 6 -47 14 -58 
12 -18 7 -26 -69 -100 l-82 -80 -97 106 -96 107 0 119 0 120 50 11 c28 7 118 14 200 17 
141 5 156 3 250 -23 72 -20 125 -43 195 -84 52 -32 95 -62 95 -67 0 -5 -53 -57 -117 -117 
-65 -60 -198 -186 -296 -281 l-177 -172 0 72 z" fill="rgb(2, 1, 32)"/>
<path d="M4738 6478c-14 15 -144 142 -289 282 l-264 255 32 25 c17 14 70 44 117 68 
52 25 122 50 178 62 57 12 130 20 190 20 54 0 136 -7 183 -16 l86 -16 -3 -126 
-3 -127 -90 -99 -90 -100 -83 80 -84 79 17 34 c15 27 16 39 6 71 -6 21 -22 45 -36 54 
-13 9 -43 16 -67 16 -32 0 -49 -6 -70 -27 -22 -21 -28 -36 -28 -71 0 -36 5 -48 31 -70 
17 -15 93 -87 169 -161 l137 -133 0 -64 c0 -35 -4 -64 -7 -64 -3 0 -18 12 -32 28 
z" fill="rgb(2, 1, 32)"/>
<path d="M4966 6685l-6 40 -6 41 c4 4 6 7 7 8 2 2 4 -31 5 -89 z" fill="rgb(68, 44, 121)"/>
<path d="M0 7100l0 483 565 133 c311 74 601 143 645 154 78 20 87 25 413 263 184 133 342 249 351 259 
l17 19 19 -1 572 59 5 -38 5 -38 -45 -7 c-41 -6 -47 -11 -59 -42 -11 -30 -16 -34 -49 -34 
-37 0 -37 0 -44 -50 l-7 -50 -44 0 -44 0 0 -54 0 -55 -52 -3 -53 -3 -3 -47 
c-3 -43 -5 -48 -28 -48 -13 0 -33 -3 -44 -6 -16 -5 -20 -15 -20 -50 l0 -43 -52 -3 
-53 -3 -3 -47 c-3 -47 -4 -48 -37 -48 -18 0 -40 -3 -49 -6 -11 -4 -16 -19 -16 -50 
l0 -44 -50 0 -50 0 0 -50 0 -50 -44 0 -43 0 -7 -50 -7 -50 -49 0 -50 0 0 -50 
0 -50 -50 0 -50 0 0 -50 0 -50 -50 0 -50 0 0 -50 0 -50 -50 0 -50 0 0 -55 
0 -55 -150 0 -150 0 0 -45 0 -45 -145 0 -145 0 0 -50 0 -50 -49 0 -50 0 -3 53 
-3 52 -96 -3 -96 -4 -7 46 -7 46 -45 0 -44 0 0 -46 0 -45 -48 3 -47 3 -3 48 
-3 47 -100 0 -99 0 z" fill="rgb(0, 13, 58)"/>
<path d="M4511 6927c-6 11 -6 24 0 35 5 10 18 18 28 18 10 0 24 -7 31 -15 6 -8 9 -23 5 -35 
-4 -13 -15 -20 -30 -20 -13 0 -28 8 -34 17 z" fill="rgb(3, 2, 26)"/>
<path d="M5671 6924c-9 11 -10 20 -1 36 7 13 19 20 32 18 12 -2 26 -10 31 -19 6 -9 7 -24 4 -33 
-4 -9 -17 -16 -30 -16 -14 0 -30 6 -36 14 z" fill="rgb(3, 2, 26)"/>
<path d="M0 7583l0 114 265 211 c236 188 298 231 561 391 l294 181 180 -25 c60 -8 127 -15 201 -21 
74 -6 156 -11 244 -14 l246 -9 -17 -19 c-9 -10 -167 -126 -351 -259 -326 -238 -335 -243 -413 -263 
-44 -11 -334 -80 -645 -154 l-565 -133 z" fill="rgb(85, 77, 180)"/>
<path d="M0 7697l0 1063 22 0 c11 0 178 -36 370 -80 133 -31 291 -66 409 -93 51 -11 94 -21 125 -27 
159 -35 187 -44 190 -61 l4 -19 -294 -181 c-263 -160 -325 -203 -561 -391 
l-265 -211 z" fill="rgb(66, 64, 160)"/>
<path d="M1991 8411l-246 9 c-88 3 -170 8 -244 14 l-6 80 -7 84 -44 7 c-41 6 -44 8 -45 38 
-1 18 -3 82 -5 144 l-2 112 31 -1 c159 -4 294 -8 300 -10 7 -2 21 -1 32 2 
l21 7 34 -17 80 -4 0 -69 c0 -40 3 -102 7 -139 l6 -68 43 0 44 0 0 -96 1 -93 
z" fill="rgb(101, 104, 197)"/>
<path d="M3596 8574l-724 -75 -290 -30 -572 -59 -19 1 -1 93 0 96 -44 0 -43 0 -6 68 
c-4 37 -7 99 -7 139 l0 69 540 -26 c341 -16 761 -36 933 -42 l312 -13 98 -53 
c27 -15 52 -28 72 -36 l-56 -59 -56 -58 -137 -15 z" fill="rgb(100, 112, 197)"/>
<path d="M1120 8480l-4 19 c-3 17 -31 26 -190 61 -31 6 -74 16 -125 27 l-3 209 -3 206 
340 -97 257 -6 2 -112 c2 -62 4 -126 5 -144 1 -30 4 -32 45 -38 l44 -7 7 -84 
6 -80 c-74 6 -141 13 -201 21 l-180 25 z" fill="rgb(98, 88, 187)"/>
<path d="M0 8760l0 25 7 223 3 222 40 -15 c22 -8 90 -28 150 -45 57 -16 272 -76 487 -137 
12 -4 24 -7 36 -10 l72 -21 3 -206 3 -209 c-118 27 -276 62 -409 93 -192 44 -359 80 -370 80 
l-22 0 z" fill="rgb(114, 86, 194)"/>
<path d="M3845 8706c-20 8 -45 21 -72 36 l-98 53 -312 13 c-172 6 -592 26 -933 42 
l-540 26 -80 4 -34 17 -45 23 c-44 22 -175 99 -292 172 -117 73 -258 169 -314 213 
-34 27 -147 120 -293 242 -79 66 -169 142 -261 218 l10 18 c6 11 22 17 44 17 
18 0 40 3 49 6 11 4 16 19 16 44 l0 37 77 7 c42 3 131 6 198 6 l122 0 6 48 
5 47 56 3 c31 1 112 2 181 2 69 0 153 3 187 8 l63 7 7 47 8 46 96 7 c52 4 140 4 194 1 
68 -5 100 -4 105 4 4 7 22 9 50 4 l44 -6 7 61 7 61 1387 0 0 -59 0 -58 99 -7 
98 -7 7 -61 c3 -34 6 -80 6 -103 l0 -43 45 -6 c25 -4 49 -5 54 -1 6 3 28 3 50 -1 
41 -7 41 -7 41 -50 l0 -44 55 0 55 0 -6 -55 -7 -55 51 0 50 0 7 -100 8 -100 42 0 
c30 0 45 -5 49 -16 3 -9 3 -52 0 -95 l-7 -78 -43 -7 -42 -6 -7 -87 c-3 -47 -8 -92 -10 -98 
-3 -8 -21 -13 -45 -13 l-40 0 0 -45 0 -45 -44 0 c-25 0 -47 -4 -50 -9 -3 -5 -6 -73 -7 -151 
-1 -109 -4 -143 -15 -147 -3 -1 -18 4 -39 13 z" fill="rgb(0, 13, 58)"/>
<path d="M0 8785l0 1455 18 0 4 -7 c2 -5 228 -197 502 -428 16 -13 32 -26 47 -40 92 -76 182 -152 261 -218 
l-16 -28 c-12 -20 -15 -39 -10 -64 3 -20 2 -41 -4 -48 -7 -8 -8 -27 -4 -47 
4 -19 7 -62 6 -95 -1 -33 -5 -81 -9 -107 -7 -46 -9 -48 -41 -48 -19 0 -38 -3 -42 -7 
-5 -5 -12 -21 -16 -38 l-9 -32 c-215 61 -430 121 -487 137 -60 17 -128 37 -150 45 
l-40 15 -3 -222 -7 -223 z" fill="rgb(111, 73, 188)"/>
<path d="M1392 8899l-257 6 -340 97 -72 21 c-12 3 -24 6 -36 10 l9 32 c4 17 11 33 16 38 
4 4 23 7 42 7 32 0 34 2 41 48 4 26 8 74 9 107 1 33 -2 76 -6 95 -4 20 -3 39 4 47 
6 7 7 28 4 48 -5 25 -2 44 10 64 l16 28 c146 -122 259 -215 293 -242 56 -44 197 -140 314 -213 
117 -73 248 -150 292 -172 l45 -23 -21 -7 c-11 -3 -25 -4 -32 -2 -6 2 -141 6 -300 10 
l-31 1 z" fill="rgb(98, 79, 186)"/>
<path d="M571 9765c-15 14 -31 27 -47 40 -274 231 -500 423 -502 428 l-4 7 1727 0 
358 0 -7 -61 -7 -61 -44 6 c-28 5 -46 3 -50 -4 -5 -8 -37 -9 -105 -4 -54 3 -142 3 -194 -1 
l-96 -7 -8 -46 -7 -47 -63 -7 c-34 -5 -118 -8 -187 -8 -69 0 -150 -1 -181 -2 
l-56 -3 -5 -47 -6 -48 -122 0 c-67 0 -156 -3 -198 -6 l-77 -7 0 -37 c0 -25 -5 -40 -16 -44 
-9 -3 -31 -6 -49 -6 -22 0 -38 -6 -44 -17 l-10 -18 z" fill="rgb(5, 6, 40)"/>
</g>
</svg>
